<?xml version="1.0" encoding="UTF-8" ?>
<!DOCTYPE svg PUBLIC "-//W3C//DTD SVG 1.1//EN" "http://www.w3.org/Graphics/SVG/1.1/DTD/svg11.dtd">
<svg width="359.25pt" height="156.75pt" viewBox="0 0 1043 454" version="1.1" xmlns="http://www.w3.org/2000/svg">
<g id="#0057b8ff">
<path fill="#0057b8" opacity="1.00" d=" M 873.62 0.00 L 877.49 0.00 C 910.73 0.49 943.80 10.82 971.03 29.94 C 997.52 48.39 1018.49 74.64 1030.50 104.61 C 1042.75 134.92 1045.65 168.87 1039.01 200.87 C 1032.54 232.46 1016.55 262.03 993.66 284.73 C 969.55 309.05 937.70 325.54 903.93 331.22 C 894.56 332.69 885.05 333.89 875.56 333.33 C 875.19 277.90 875.49 222.46 875.41 167.02 C 819.97 166.90 764.53 167.15 709.10 166.90 C 708.38 118.10 731.28 69.84 768.82 38.80 C 797.91 14.26 835.62 0.54 873.62 0.00 Z" />
</g>
<g id="#000000ff">
<path fill="#000000" opacity="1.00" d=" M 80.91 165.92 C 105.66 160.39 132.53 163.98 154.56 176.70 C 154.44 193.38 154.51 210.07 154.52 226.75 C 139.84 214.86 120.74 209.14 101.97 209.51 C 87.83 209.99 73.89 215.89 63.90 225.94 C 52.91 236.50 46.43 251.69 46.73 266.95 C 46.56 282.46 53.44 297.73 64.70 308.31 C 74.93 318.06 88.87 323.68 102.99 323.97 C 118.52 323.75 134.24 319.93 147.41 311.51 C 149.84 310.05 151.92 308.06 154.49 306.83 C 154.55 323.48 154.44 340.13 154.54 356.78 C 135.68 367.49 113.35 371.87 91.83 369.33 C 68.33 366.70 45.91 355.53 29.57 338.45 C 13.21 321.72 2.92 299.21 0.95 275.91 C -1.23 252.51 4.92 228.42 18.15 209.00 C 32.60 187.36 55.54 171.63 80.91 165.92 Z" />
<path fill="#000000" opacity="1.00" d=" M 251.96 168.19 C 278.92 159.60 309.44 162.63 334.03 176.71 C 333.96 193.46 334.02 210.20 334.00 226.95 C 320.11 215.32 301.87 209.75 283.93 209.48 C 270.49 209.32 257.04 214.06 246.75 222.72 C 235.56 231.91 228.10 245.49 226.42 259.88 C 224.44 275.19 229.26 291.15 239.11 303.01 C 249.25 315.50 264.88 323.25 280.95 323.91 C 299.91 324.18 319.19 318.41 333.99 306.33 C 334.00 323.14 334.01 339.96 333.99 356.77 C 313.30 368.44 288.52 372.65 265.14 368.44 C 241.64 364.37 219.76 351.75 204.42 333.50 C 190.93 317.70 182.41 297.73 180.42 277.06 C 178.34 256.03 182.68 234.37 193.19 216.00 C 205.84 193.44 227.26 175.93 251.96 168.19 Z" />
<path fill="#000000" opacity="1.00" d=" M 373.51 166.76 C 389.92 166.76 406.34 166.72 422.76 166.77 C 422.72 218.31 422.81 269.86 422.72 321.40 C 450.67 321.58 478.64 321.54 506.60 321.42 C 506.94 336.52 506.66 351.64 506.75 366.75 C 462.34 366.77 417.93 366.74 373.52 366.76 C 373.47 300.09 373.50 233.42 373.51 166.76 Z" />
<path fill="#000000" opacity="1.00" d=" M 589.01 166.76 C 629.04 166.84 669.07 166.56 709.10 166.90 C 709.56 185.65 712.34 204.44 718.73 222.14 C 731.42 258.47 757.27 289.97 790.31 309.67 C 815.88 325.14 845.72 333.19 875.56 333.33 C 875.99 373.22 875.66 413.15 875.72 453.05 C 780.15 452.93 684.57 453.03 588.99 453.00 C 589.01 357.59 588.98 262.17 589.01 166.76 Z" />
</g>
<g id="#fcdc00ff">
<path fill="#fcdc00" opacity="1.00" d=" M 709.10 166.90 C 764.53 167.15 819.97 166.90 875.41 167.02 C 875.49 222.46 875.19 277.90 875.56 333.33 C 845.72 333.19 815.88 325.14 790.31 309.67 C 757.27 289.97 731.42 258.47 718.73 222.14 C 712.34 204.44 709.56 185.65 709.10 166.90 Z" />
</g>
<g id="#00000080">
<path fill="#000000" opacity="0.50" d=" M 588.99 453.00 C 684.57 453.03 780.15 452.93 875.72 453.05 L 876.06 454.00 L 588.99 454.00 L 588.99 453.00 Z" />
</g>
</svg>
